<mxfile host="Electron" modified="2023-08-17T04:07:54.602Z" agent="Mozilla/5.0 (Macintosh; Intel Mac OS X 10_15_7) AppleWebKit/537.36 (KHTML, like Gecko) draw.io/21.6.8 Chrome/114.0.5735.289 Electron/25.5.0 Safari/537.36" etag="9flj8wqIWKrtOqujmhx6" version="21.6.8" type="device">
  <diagram id="YuPaqUzf5OhBC5Z3rplX" name="Page-1">
    <mxGraphModel dx="1895" dy="1719" grid="1" gridSize="10" guides="1" tooltips="1" connect="1" arrows="1" fold="1" page="1" pageScale="1" pageWidth="850" pageHeight="1100" background="none" math="0" shadow="0">
      <root>
        <mxCell id="0" />
        <mxCell id="1" parent="0" />
        <mxCell id="HhaSms0DMfDj1s8Jxr5F-13" value="" style="endArrow=classic;html=1;rounded=0;strokeColor=#666666;strokeWidth=2;entryX=0;entryY=0.5;entryDx=0;entryDy=0;" edge="1" parent="1">
          <mxGeometry width="50" height="50" relative="1" as="geometry">
            <mxPoint x="-451" y="-694" as="sourcePoint" />
            <mxPoint x="-409" y="-694.3574999999998" as="targetPoint" />
            <Array as="points" />
          </mxGeometry>
        </mxCell>
        <mxCell id="UzN5cQEO4EBcbUdg2jpK-1" value="&lt;b&gt;TCGA train data&lt;br&gt;&lt;br&gt;&lt;/b&gt;&lt;font style=&quot;font-size: 10px;&quot;&gt;&lt;br&gt;&lt;/font&gt;" style="shape=cylinder3;whiteSpace=wrap;html=1;boundedLbl=1;backgroundOutline=1;size=15;" parent="1" vertex="1">
          <mxGeometry x="-850" y="-1071" width="110" height="440" as="geometry" />
        </mxCell>
        <mxCell id="UzN5cQEO4EBcbUdg2jpK-3" value="&lt;b&gt;Cancer cohort n&lt;/b&gt;" style="shape=cylinder3;whiteSpace=wrap;html=1;boundedLbl=1;backgroundOutline=1;size=15;" parent="1" vertex="1">
          <mxGeometry x="-850" y="-590" width="109" height="80" as="geometry" />
        </mxCell>
        <mxCell id="UzN5cQEO4EBcbUdg2jpK-16" value="&lt;b&gt;Original sample set&lt;br&gt;&lt;br&gt;&lt;br&gt;&lt;/b&gt;" style="shape=cylinder3;whiteSpace=wrap;html=1;boundedLbl=1;backgroundOutline=1;size=15;" parent="1" vertex="1">
          <mxGeometry x="-781" y="-626.99" width="120" height="34" as="geometry" />
        </mxCell>
        <mxCell id="UzN5cQEO4EBcbUdg2jpK-17" value="&lt;b&gt;Validation sample set&lt;/b&gt;" style="shape=cylinder3;whiteSpace=wrap;html=1;boundedLbl=1;backgroundOutline=1;size=15;" parent="1" vertex="1">
          <mxGeometry x="-660.32" y="-584" width="120" height="74" as="geometry" />
        </mxCell>
        <mxCell id="UzN5cQEO4EBcbUdg2jpK-21" value="" style="endArrow=classic;html=1;rounded=0;strokeWidth=2;dashed=1;entryX=1;entryY=1;entryDx=0;entryDy=0;strokeColor=#CCCCCC;exitX=1;exitY=1;exitDx=0;exitDy=0;" parent="1" source="UzN5cQEO4EBcbUdg2jpK-47" target="EcK-fsUtHcCap1s3ufzP-1" edge="1">
          <mxGeometry width="50" height="50" relative="1" as="geometry">
            <mxPoint x="-140" y="-374" as="sourcePoint" />
            <mxPoint x="-118" y="-541.5" as="targetPoint" />
          </mxGeometry>
        </mxCell>
        <mxCell id="UzN5cQEO4EBcbUdg2jpK-31" value="&lt;b&gt;Latent features&lt;br&gt;&lt;/b&gt;&lt;b style=&quot;border-color: var(--border-color);&quot;&gt;recombined&lt;/b&gt;&lt;b&gt;&lt;br&gt;&lt;/b&gt;" style="rounded=0;whiteSpace=wrap;html=1;" parent="1" vertex="1">
          <mxGeometry x="-675" y="-728.49" width="80" height="50" as="geometry" />
        </mxCell>
        <mxCell id="UzN5cQEO4EBcbUdg2jpK-39" style="edgeStyle=orthogonalEdgeStyle;rounded=0;orthogonalLoop=1;jettySize=auto;html=1;exitX=1;exitY=0.5;exitDx=0;exitDy=0;exitPerimeter=0;entryX=1;entryY=0;entryDx=0;entryDy=18;entryPerimeter=0;strokeColor=#CCCCCC;strokeWidth=2;" parent="1" source="UzN5cQEO4EBcbUdg2jpK-26" target="UzN5cQEO4EBcbUdg2jpK-26" edge="1">
          <mxGeometry relative="1" as="geometry" />
        </mxCell>
        <mxCell id="UzN5cQEO4EBcbUdg2jpK-47" value="&lt;b&gt;Random forest classifier trained&amp;nbsp;&lt;/b&gt;" style="whiteSpace=wrap;html=1;aspect=fixed;strokeColor=#B3B3B3;perimeter=rectanglePerimeter;" parent="1" vertex="1">
          <mxGeometry x="-360" y="-877.12" width="80" height="80" as="geometry" />
        </mxCell>
        <mxCell id="EcK-fsUtHcCap1s3ufzP-1" value="&lt;b&gt;Predictions on validation set&amp;nbsp;&lt;/b&gt;" style="whiteSpace=wrap;html=1;aspect=fixed;strokeColor=#B3B3B3;" parent="1" vertex="1">
          <mxGeometry x="-290" y="-989" width="80" height="80" as="geometry" />
        </mxCell>
        <mxCell id="EcK-fsUtHcCap1s3ufzP-4" value="" style="endArrow=classic;html=1;rounded=0;strokeWidth=2;dashed=1;entryX=1;entryY=1;entryDx=0;entryDy=0;strokeColor=#CCCCCC;exitX=1;exitY=1;exitDx=0;exitDy=0;" parent="1" source="-TSSFpuOWZUfAWz2F4pI-28" edge="1">
          <mxGeometry width="50" height="50" relative="1" as="geometry">
            <mxPoint x="-417.5" y="-899.5" as="sourcePoint" />
            <mxPoint x="-451.6628099173554" y="-744.4856867323115" as="targetPoint" />
          </mxGeometry>
        </mxCell>
        <mxCell id="UzN5cQEO4EBcbUdg2jpK-18" value="" style="endArrow=classic;html=1;rounded=0;strokeColor=#666666;strokeWidth=2;entryX=0.5;entryY=1;entryDx=0;entryDy=0;entryPerimeter=0;exitX=1;exitY=0.5;exitDx=0;exitDy=0;exitPerimeter=0;" parent="1" source="UzN5cQEO4EBcbUdg2jpK-3" target="UzN5cQEO4EBcbUdg2jpK-16" edge="1">
          <mxGeometry width="50" height="50" relative="1" as="geometry">
            <mxPoint x="-740" y="-526" as="sourcePoint" />
            <mxPoint x="-683.141592920354" y="-284" as="targetPoint" />
            <Array as="points">
              <mxPoint x="-721" y="-550" />
            </Array>
          </mxGeometry>
        </mxCell>
        <mxCell id="UzN5cQEO4EBcbUdg2jpK-19" value="" style="endArrow=classic;html=1;rounded=0;strokeColor=#666666;strokeWidth=2;entryX=0;entryY=0;entryDx=0;entryDy=48;entryPerimeter=0;exitX=1;exitY=0;exitDx=0;exitDy=52.5;exitPerimeter=0;" parent="1" source="UzN5cQEO4EBcbUdg2jpK-3" target="UzN5cQEO4EBcbUdg2jpK-17" edge="1">
          <mxGeometry width="50" height="50" relative="1" as="geometry">
            <mxPoint x="-729" y="-394" as="sourcePoint" />
            <mxPoint x="-678.362831858407" y="-255.4960000000001" as="targetPoint" />
            <Array as="points" />
          </mxGeometry>
        </mxCell>
        <mxCell id="UzN5cQEO4EBcbUdg2jpK-20" value="" style="endArrow=classic;html=1;rounded=0;strokeColor=#666666;strokeWidth=2;exitX=0.5;exitY=0;exitDx=0;exitDy=0;exitPerimeter=0;entryX=0.5;entryY=1;entryDx=0;entryDy=0;" parent="1" source="UzN5cQEO4EBcbUdg2jpK-16" target="-TSSFpuOWZUfAWz2F4pI-24" edge="1">
          <mxGeometry width="50" height="50" relative="1" as="geometry">
            <mxPoint x="-656.858407079646" y="-288" as="sourcePoint" />
            <mxPoint x="-700" y="-890" as="targetPoint" />
            <Array as="points">
              <mxPoint x="-720" y="-850" />
            </Array>
          </mxGeometry>
        </mxCell>
        <mxCell id="UzN5cQEO4EBcbUdg2jpK-22" value="" style="endArrow=classic;html=1;rounded=0;strokeColor=#666666;strokeWidth=2;entryX=0.5;entryY=1;entryDx=0;entryDy=0;exitX=1;exitY=0;exitDx=0;exitDy=117.5;exitPerimeter=0;" parent="1" source="UzN5cQEO4EBcbUdg2jpK-1" target="-TSSFpuOWZUfAWz2F4pI-21" edge="1">
          <mxGeometry width="50" height="50" relative="1" as="geometry">
            <mxPoint x="-740" y="-949" as="sourcePoint" />
            <mxPoint x="-676" y="-949.9999999999999" as="targetPoint" />
            <Array as="points" />
          </mxGeometry>
        </mxCell>
        <mxCell id="UzN5cQEO4EBcbUdg2jpK-23" value="" style="endArrow=classic;html=1;rounded=0;strokeColor=#82b366;strokeWidth=3;exitX=0.5;exitY=1;exitDx=0;exitDy=0;fillColor=#d5e8d4;entryX=-0.016;entryY=0.323;entryDx=0;entryDy=0;entryPerimeter=0;" parent="1" source="-TSSFpuOWZUfAWz2F4pI-28" target="UzN5cQEO4EBcbUdg2jpK-47" edge="1">
          <mxGeometry width="50" height="50" relative="1" as="geometry">
            <mxPoint x="-417.5" y="-850.75" as="sourcePoint" />
            <mxPoint x="-320" y="-1025" as="targetPoint" />
            <Array as="points" />
          </mxGeometry>
        </mxCell>
        <mxCell id="UzN5cQEO4EBcbUdg2jpK-32" value="" style="endArrow=classic;html=1;rounded=0;strokeColor=#666666;strokeWidth=2;entryX=0.5;entryY=0;entryDx=0;entryDy=0;exitX=0.5;exitY=1;exitDx=0;exitDy=0;exitPerimeter=0;" parent="1" source="UzN5cQEO4EBcbUdg2jpK-26" target="UzN5cQEO4EBcbUdg2jpK-31" edge="1">
          <mxGeometry x="-0.9184" y="10" width="50" height="50" relative="1" as="geometry">
            <mxPoint x="-510" y="-554" as="sourcePoint" />
            <mxPoint x="-623.141592920354" y="-191" as="targetPoint" />
            <Array as="points" />
            <mxPoint as="offset" />
          </mxGeometry>
        </mxCell>
        <mxCell id="UzN5cQEO4EBcbUdg2jpK-33" value="" style="endArrow=classic;html=1;rounded=0;strokeColor=#666666;strokeWidth=2;entryX=0;entryY=0;entryDx=0;entryDy=15;entryPerimeter=0;exitX=1;exitY=0.5;exitDx=0;exitDy=0;" parent="1" source="UzN5cQEO4EBcbUdg2jpK-31" target="UzN5cQEO4EBcbUdg2jpK-25" edge="1">
          <mxGeometry width="50" height="50" relative="1" as="geometry">
            <mxPoint x="-552" y="-705" as="sourcePoint" />
            <mxPoint x="-530" y="-747" as="targetPoint" />
            <Array as="points" />
          </mxGeometry>
        </mxCell>
        <mxCell id="5apU4q3JXk6XN7kTxdJK-13" value="" style="endArrow=classic;html=1;rounded=0;strokeColor=#d79b00;strokeWidth=3;fillColor=#ffe6cc;movable=1;resizable=1;rotatable=1;deletable=1;editable=1;connectable=1;entryX=0.25;entryY=1;entryDx=0;entryDy=0;" parent="1" target="UzN5cQEO4EBcbUdg2jpK-47" edge="1">
          <mxGeometry width="50" height="50" relative="1" as="geometry">
            <mxPoint x="-360" y="-730" as="sourcePoint" />
            <mxPoint x="-336" y="-795" as="targetPoint" />
            <Array as="points" />
          </mxGeometry>
        </mxCell>
        <mxCell id="5apU4q3JXk6XN7kTxdJK-11" value="&lt;b style=&quot;border-color: var(--border-color);&quot;&gt;Synthetic-from-latent&amp;nbsp;&lt;/b&gt;&lt;b style=&quot;border-color: var(--border-color);&quot;&gt;and&lt;/b&gt;&lt;b&gt;&lt;br&gt;original data mixed&amp;nbsp;&lt;/b&gt;" style="rounded=0;whiteSpace=wrap;html=1;" parent="1" vertex="1">
          <mxGeometry x="-413" y="-728.49" width="100" height="69.24" as="geometry" />
        </mxCell>
        <mxCell id="UzN5cQEO4EBcbUdg2jpK-15" value="" style="endArrow=classic;html=1;rounded=0;strokeWidth=2;dashed=1;entryX=0.25;entryY=0;entryDx=0;entryDy=0;strokeColor=#CCCCCC;exitX=0.25;exitY=0;exitDx=0;exitDy=0;" parent="1" source="-TSSFpuOWZUfAWz2F4pI-28" edge="1">
          <mxGeometry width="50" height="50" relative="1" as="geometry">
            <mxPoint x="-200" y="-440" as="sourcePoint" />
            <mxPoint x="-499.6628099173554" y="-684.4856867323115" as="targetPoint" />
          </mxGeometry>
        </mxCell>
        <mxCell id="UzN5cQEO4EBcbUdg2jpK-45" value="" style="endArrow=classic;html=1;rounded=0;strokeColor=#666666;strokeWidth=2;exitX=1;exitY=0;exitDx=0;exitDy=15;exitPerimeter=0;entryX=0.185;entryY=0.505;entryDx=0;entryDy=0;entryPerimeter=0;" parent="1" source="UzN5cQEO4EBcbUdg2jpK-25" edge="1">
          <mxGeometry width="50" height="50" relative="1" as="geometry">
            <mxPoint x="-462" y="-744" as="sourcePoint" />
            <mxPoint x="-498.98152148760323" y="-704.7557367323114" as="targetPoint" />
            <Array as="points" />
          </mxGeometry>
        </mxCell>
        <mxCell id="-TSSFpuOWZUfAWz2F4pI-20" value="" style="group" parent="1" vertex="1" connectable="0">
          <mxGeometry x="-698" y="-984" width="195.36" height="75" as="geometry" />
        </mxCell>
        <mxCell id="-TSSFpuOWZUfAWz2F4pI-29" value="" style="shape=trapezoid;perimeter=trapezoidPerimeter;whiteSpace=wrap;html=1;fixedSize=1;rotation=-90;" parent="-TSSFpuOWZUfAWz2F4pI-20" vertex="1">
          <mxGeometry x="68.23" y="6" width="80" height="48" as="geometry" />
        </mxCell>
        <mxCell id="-TSSFpuOWZUfAWz2F4pI-21" value="" style="shape=trapezoid;perimeter=trapezoidPerimeter;whiteSpace=wrap;html=1;fixedSize=1;rotation=90;" parent="-TSSFpuOWZUfAWz2F4pI-20" vertex="1">
          <mxGeometry x="-32.31999999999999" y="6" width="80" height="48" as="geometry" />
        </mxCell>
        <mxCell id="-TSSFpuOWZUfAWz2F4pI-30" value="" style="group" parent="-TSSFpuOWZUfAWz2F4pI-20" vertex="1" connectable="0">
          <mxGeometry x="-3.000000000000007" y="-10" width="121.56" height="80" as="geometry" />
        </mxCell>
        <mxCell id="-TSSFpuOWZUfAWz2F4pI-23" value="&lt;b&gt;VAE&lt;br&gt;trained&lt;/b&gt;" style="rounded=1;whiteSpace=wrap;html=1;" parent="-TSSFpuOWZUfAWz2F4pI-30" vertex="1">
          <mxGeometry x="25.560000000000006" y="19" width="70" height="42" as="geometry" />
        </mxCell>
        <mxCell id="-TSSFpuOWZUfAWz2F4pI-34" value="" style="endArrow=classic;html=1;rounded=0;strokeWidth=2;dashed=1;entryX=1;entryY=1;entryDx=0;entryDy=0;strokeColor=#CCCCCC;exitX=1;exitY=1;exitDx=0;exitDy=0;" parent="1" source="-TSSFpuOWZUfAWz2F4pI-21" target="-TSSFpuOWZUfAWz2F4pI-24" edge="1">
          <mxGeometry x="-1" y="111" width="50" height="50" relative="1" as="geometry">
            <mxPoint x="-591.5" y="-792.5" as="sourcePoint" />
            <mxPoint x="-575.06" y="-738.5" as="targetPoint" />
            <mxPoint x="-135" y="-75" as="offset" />
          </mxGeometry>
        </mxCell>
        <mxCell id="-TSSFpuOWZUfAWz2F4pI-35" value="" style="endArrow=classic;html=1;rounded=0;strokeWidth=2;dashed=1;entryX=1;entryY=1;entryDx=0;entryDy=0;strokeColor=#CCCCCC;exitX=1;exitY=1;exitDx=0;exitDy=0;" parent="1" source="-TSSFpuOWZUfAWz2F4pI-29" target="-TSSFpuOWZUfAWz2F4pI-28" edge="1">
          <mxGeometry x="-1" y="111" width="50" height="50" relative="1" as="geometry">
            <mxPoint x="-462.3199999999998" y="-970" as="sourcePoint" />
            <mxPoint x="-417.96000000000015" y="-880" as="targetPoint" />
            <mxPoint x="-135" y="-75" as="offset" />
          </mxGeometry>
        </mxCell>
        <mxCell id="-TSSFpuOWZUfAWz2F4pI-46" value="" style="group" parent="1" vertex="1" connectable="0">
          <mxGeometry x="-660.3200000000003" y="-891" width="138.32000000000005" height="80" as="geometry" />
        </mxCell>
        <mxCell id="-TSSFpuOWZUfAWz2F4pI-28" value="" style="shape=trapezoid;perimeter=trapezoidPerimeter;whiteSpace=wrap;html=1;fixedSize=1;rotation=-90;" parent="-TSSFpuOWZUfAWz2F4pI-46" vertex="1">
          <mxGeometry x="74.32000000000005" y="16" width="80" height="48" as="geometry" />
        </mxCell>
        <mxCell id="-TSSFpuOWZUfAWz2F4pI-31" value="" style="group" parent="-TSSFpuOWZUfAWz2F4pI-46" vertex="1" connectable="0">
          <mxGeometry width="124" height="80" as="geometry" />
        </mxCell>
        <mxCell id="-TSSFpuOWZUfAWz2F4pI-24" value="" style="shape=trapezoid;perimeter=trapezoidPerimeter;whiteSpace=wrap;html=1;fixedSize=1;rotation=90;" parent="-TSSFpuOWZUfAWz2F4pI-31" vertex="1">
          <mxGeometry x="-29.68" y="16" width="80" height="48" as="geometry" />
        </mxCell>
        <mxCell id="UzN5cQEO4EBcbUdg2jpK-4" value="&lt;b&gt;VAE&lt;br&gt;transfer learned&lt;/b&gt;" style="rounded=1;whiteSpace=wrap;html=1;" parent="-TSSFpuOWZUfAWz2F4pI-31" vertex="1">
          <mxGeometry x="26.870000000000005" y="19" width="70" height="42" as="geometry" />
        </mxCell>
        <mxCell id="-TSSFpuOWZUfAWz2F4pI-49" value="" style="endArrow=classic;html=1;rounded=0;strokeColor=#666666;strokeWidth=2;entryX=0.855;entryY=0;entryDx=0;entryDy=4.35;entryPerimeter=0;exitX=0.5;exitY=1;exitDx=0;exitDy=0;" parent="1" source="UzN5cQEO4EBcbUdg2jpK-4" target="UzN5cQEO4EBcbUdg2jpK-26" edge="1">
          <mxGeometry width="50" height="50" relative="1" as="geometry">
            <mxPoint x="-720" y="-742" as="sourcePoint" />
            <mxPoint x="-686.6133884297521" y="-741.99" as="targetPoint" />
            <Array as="points">
              <mxPoint x="-600" y="-820" />
            </Array>
          </mxGeometry>
        </mxCell>
        <mxCell id="-TSSFpuOWZUfAWz2F4pI-56" value="" style="endArrow=classic;html=1;rounded=0;strokeColor=#666666;strokeWidth=2;entryX=0.5;entryY=1;entryDx=0;entryDy=0;exitX=1;exitY=0;exitDx=0;exitDy=48;exitPerimeter=0;" parent="1" source="UzN5cQEO4EBcbUdg2jpK-17" target="EcK-fsUtHcCap1s3ufzP-1" edge="1">
          <mxGeometry width="50" height="50" relative="1" as="geometry">
            <mxPoint x="-400.206611570248" y="-516.5" as="sourcePoint" />
            <mxPoint x="-85.28925619834718" y="-584.49" as="targetPoint" />
            <Array as="points">
              <mxPoint x="-250" y="-536" />
            </Array>
          </mxGeometry>
        </mxCell>
        <mxCell id="UzN5cQEO4EBcbUdg2jpK-26" value="&lt;b&gt;Latent features&lt;br&gt;&lt;br&gt;&lt;/b&gt;" style="shape=cylinder3;whiteSpace=wrap;html=1;boundedLbl=1;backgroundOutline=1;size=15;strokeColor=#B3B3B3;" parent="1" vertex="1">
          <mxGeometry x="-649.9999999999999" y="-797.12" width="30" height="34.25" as="geometry" />
        </mxCell>
        <mxCell id="UzN5cQEO4EBcbUdg2jpK-25" value="&lt;b&gt;Synthetic latent features&lt;/b&gt;" style="shape=cylinder3;whiteSpace=wrap;html=1;boundedLbl=1;backgroundOutline=1;size=15;strokeColor=#B3B3B3;" parent="1" vertex="1">
          <mxGeometry x="-570" y="-719.24" width="33.87" height="74.49" as="geometry" />
        </mxCell>
        <mxCell id="Majem9OmGgyb3U6Gu6VV-1" value="&lt;b&gt;Recursive feature elimination&lt;/b&gt;" style="rounded=0;whiteSpace=wrap;html=1;" parent="1" vertex="1">
          <mxGeometry x="-480" y="-984" width="120" height="60" as="geometry" />
        </mxCell>
        <mxCell id="eaHIUGbXTXQ_PHAHpQgw-2" value="" style="endArrow=classic;html=1;rounded=0;strokeColor=#6c8ebf;strokeWidth=3;fillColor=#dae8fc;movable=1;resizable=1;rotatable=1;deletable=1;editable=1;connectable=1;entryX=0.75;entryY=1;entryDx=0;entryDy=0;exitX=1;exitY=0.5;exitDx=0;exitDy=0;exitPerimeter=0;" parent="1" source="UzN5cQEO4EBcbUdg2jpK-16" target="UzN5cQEO4EBcbUdg2jpK-47" edge="1">
          <mxGeometry width="50" height="50" relative="1" as="geometry">
            <mxPoint x="-660" y="-584" as="sourcePoint" />
            <mxPoint x="-250" y="-710" as="targetPoint" />
            <Array as="points">
              <mxPoint x="-300" y="-610" />
            </Array>
          </mxGeometry>
        </mxCell>
        <mxCell id="fIgnB0_eP4-JwERvQPA--1" value="" style="endArrow=classic;html=1;rounded=0;strokeColor=#b85450;strokeWidth=3;fillColor=#f8cecc;movable=1;resizable=1;rotatable=1;deletable=1;editable=1;connectable=1;entryX=0;entryY=0.75;entryDx=0;entryDy=0;exitX=0.75;exitY=1;exitDx=0;exitDy=0;" parent="1" target="UzN5cQEO4EBcbUdg2jpK-47" edge="1">
          <mxGeometry x="1" y="175" width="50" height="50" relative="1" as="geometry">
            <mxPoint x="-451.6628099173554" y="-724.4856867323115" as="sourcePoint" />
            <mxPoint x="-190" y="-1050" as="targetPoint" />
            <Array as="points" />
            <mxPoint x="18" y="-9" as="offset" />
          </mxGeometry>
        </mxCell>
        <mxCell id="fIgnB0_eP4-JwERvQPA--6" value="" style="endArrow=classic;html=1;rounded=0;strokeColor=#6c8ebf;strokeWidth=3;fillColor=#dae8fc;movable=1;resizable=1;rotatable=1;deletable=1;editable=1;connectable=1;entryX=0.5;entryY=1;entryDx=0;entryDy=0;" parent="1" target="5apU4q3JXk6XN7kTxdJK-11" edge="1">
          <mxGeometry x="-1" y="304" width="50" height="50" relative="1" as="geometry">
            <mxPoint x="-363" y="-610" as="sourcePoint" />
            <mxPoint x="-363" y="-643" as="targetPoint" />
            <Array as="points" />
            <mxPoint x="84" y="210" as="offset" />
          </mxGeometry>
        </mxCell>
        <mxCell id="fIgnB0_eP4-JwERvQPA--7" value="" style="endArrow=classic;html=1;rounded=0;strokeColor=#666666;strokeWidth=2;entryX=0.5;entryY=1;entryDx=0;entryDy=0;exitX=0.25;exitY=0;exitDx=0;exitDy=0;" parent="1" source="5apU4q3JXk6XN7kTxdJK-11" target="Majem9OmGgyb3U6Gu6VV-1" edge="1">
          <mxGeometry width="50" height="50" relative="1" as="geometry">
            <mxPoint x="-730.5000000000002" y="-494.5" as="sourcePoint" />
            <mxPoint x="-651" y="-496" as="targetPoint" />
            <Array as="points" />
          </mxGeometry>
        </mxCell>
        <mxCell id="qFBJ_dphTkZHcTiTSMuX-1" value="" style="endArrow=classic;html=1;rounded=0;strokeWidth=2;dashed=1;entryX=1;entryY=1;entryDx=0;entryDy=0;strokeColor=#CCCCCC;exitX=1;exitY=1;exitDx=0;exitDy=0;" parent="1" edge="1">
          <mxGeometry width="50" height="50" relative="1" as="geometry">
            <mxPoint x="-360.0000000000002" y="-877.1200000000001" as="sourcePoint" />
            <mxPoint x="-290.0000000000002" y="-989" as="targetPoint" />
          </mxGeometry>
        </mxCell>
        <mxCell id="HhaSms0DMfDj1s8Jxr5F-11" value="" style="shape=trapezoid;perimeter=trapezoidPerimeter;whiteSpace=wrap;html=1;fixedSize=1;rotation=-90;container=0;" vertex="1" parent="1">
          <mxGeometry x="-514.92" y="-730.23" width="80" height="49.49" as="geometry" />
        </mxCell>
        <mxCell id="HhaSms0DMfDj1s8Jxr5F-12" value="&lt;span style=&quot;background-color: rgb(255, 255, 255);&quot;&gt;&lt;b&gt;Trained decoder&lt;/b&gt;&lt;/span&gt;" style="text;html=1;strokeColor=none;fillColor=none;align=center;verticalAlign=middle;whiteSpace=wrap;rounded=0;container=0;" vertex="1" parent="1">
          <mxGeometry x="-513.6594214876033" y="-728.4856867323115" width="79.34" height="46.99" as="geometry" />
        </mxCell>
      </root>
    </mxGraphModel>
  </diagram>
</mxfile>
